<?xml version="1.0" encoding="UTF-8"?>
<svg version="1.1" xmlns="http://www.w3.org/2000/svg" width="424" height="320">
<path d="M0 0 C139.92 0 279.84 0 424 0 C424 105.6 424 211.2 424 320 C284.08 320 144.16 320 0 320 C0 214.4 0 108.8 0 0 Z " fill="#F7F6F6" transform="translate(0,0)"/>
<path d="M0 0 C1.07239426 -0.00428513 2.14478851 -0.00857025 3.24967957 -0.01298523 C5.50962623 -0.01870563 7.7695913 -0.01924577 10.02954102 -0.01489258 C13.45947206 -0.01173806 16.88853505 -0.03520274 20.31835938 -0.06054688 C22.52473851 -0.06282086 24.73111993 -0.0635229 26.9375 -0.0625 C28.45522758 -0.07631462 28.45522758 -0.07631462 30.00361633 -0.09040833 C37.41327206 -0.04304185 46.05035375 0.20640643 51.91316223 5.22123718 C57.38165592 11.10269515 58.97364367 16.22916484 58.89501953 24.2121582 C58.89531158 24.99317398 58.89560364 25.77418976 58.89590454 26.57887268 C58.89451611 29.1490507 58.87897796 31.71893539 58.86328125 34.2890625 C58.85954939 36.07553448 58.85670323 37.86200851 58.85470581 39.64848328 C58.84708299 44.34206835 58.82744611 49.03552893 58.80529785 53.72906494 C58.7848103 58.52183346 58.77569787 63.31462216 58.765625 68.10742188 C58.74419895 77.50526292 58.71007931 86.90301172 58.66796875 96.30078125 C60.03740631 96.2907885 60.03740631 96.2907885 61.43450928 96.28059387 C70.08383568 96.22021269 78.7330902 96.17467047 87.3825798 96.14534473 C91.82822491 96.12976071 96.27369428 96.10865701 100.71923828 96.07446289 C105.0181066 96.04160796 109.31680703 96.02387378 113.61579132 96.01614952 C115.24705901 96.0106525 116.87831863 95.9999197 118.50951385 95.98359108 C139.71894865 95.77993262 139.71894865 95.77993262 148.73046875 101.11328125 C153.43784568 106.42806166 154.7697433 111.93245477 154.86083984 118.82861328 C154.88493423 120.49151901 154.88493423 120.49151901 154.90951538 122.1880188 C154.95419722 127.26075494 154.99504177 132.33336279 155.01806641 137.40625 C155.03136519 140.07581896 155.06184962 142.74356918 155.10009766 145.41308594 C155.15509419 149.27432076 155.17677824 153.13451903 155.19140625 156.99609375 C155.21407562 158.1787381 155.236745 159.36138245 155.26010132 160.5798645 C155.24086004 168.19199786 154.02971608 173.95560581 149.66796875 180.30078125 C143.45386882 185.82442564 135.71679212 186.61131471 127.69140625 186.52783203 C126.9392131 186.52812408 126.18701996 186.52841614 125.41203308 186.52871704 C122.95555596 186.52733709 120.49939209 186.51183977 118.04296875 186.49609375 C116.3280453 186.49235886 114.61311971 186.48951414 112.89819336 186.48751831 C108.40686038 186.47991934 103.91565885 186.46030334 99.42437744 186.43811035 C94.83241554 186.41757103 90.2404322 186.40849937 85.6484375 186.3984375 C76.65489049 186.3770536 67.66144059 186.34296326 58.66796875 186.30078125 C58.67240997 187.22040146 58.6768512 188.14002167 58.681427 189.08750916 C58.72161049 197.78193562 58.75200727 206.4763306 58.77159309 215.17082882 C58.78200106 219.64004944 58.79610532 224.10919291 58.81884766 228.57836914 C58.84068305 232.89666559 58.85255981 237.21488812 58.85772324 241.53323555 C58.86139987 243.17534103 58.86857913 244.81744277 58.87942886 246.45951653 C59.02091942 268.77445272 59.02091942 268.77445272 52.66796875 277.30078125 C44.81840485 282.81895758 35.99789838 282.46835713 26.76953125 282.50390625 C25.62060394 282.50960632 24.47167664 282.5153064 23.28793335 282.5211792 C20.86221227 282.53060619 18.43647851 282.53715401 16.01074219 282.54101562 C12.31292292 282.55072884 8.61565793 282.58177804 4.91796875 282.61328125 C2.55599287 282.6198113 0.19401303 282.62506176 -2.16796875 282.62890625 C-3.81676529 282.64742645 -3.81676529 282.64742645 -5.49887085 282.6663208 C-13.11605896 282.64436394 -19.12138987 282.01198953 -25.14453125 276.92578125 C-30.82518735 270.10899393 -31.49036902 264.25673309 -31.44555664 255.55126953 C-31.44570267 254.79936844 -31.44584869 254.04746735 -31.44599915 253.27278137 C-31.44530653 250.80552207 -31.43754483 248.33833975 -31.4296875 245.87109375 C-31.427821 244.15331056 -31.42639819 242.43552683 -31.42539978 240.71774292 C-31.42159284 236.20998652 -31.41177821 231.70226265 -31.4006958 227.19451904 C-31.3904424 222.58931925 -31.38589376 217.98411418 -31.38085938 213.37890625 C-31.37015423 204.35285034 -31.35309981 195.32681851 -31.33203125 186.30078125 C-32.274487 186.30744308 -33.21694275 186.31410492 -34.18795776 186.32096863 C-43.1027886 186.38198494 -52.01757664 186.42685194 -60.9325695 186.45621777 C-65.51503123 186.47182296 -70.09732335 186.49296635 -74.6796875 186.52709961 C-79.10822321 186.55987773 -83.53659656 186.5776729 -87.96524429 186.58541298 C-89.6484037 186.59092355 -91.331555 186.60168375 -93.01464462 186.61797142 C-112.66024458 186.8003943 -112.66024458 186.8003943 -121.26953125 181.48828125 C-126.42705911 176.01817594 -127.42914738 169.89828661 -127.52490234 162.64355469 C-127.54096527 161.53179871 -127.5570282 160.42004272 -127.57357788 159.27459717 C-127.61831033 154.20472024 -127.65908049 149.13496972 -127.68212891 144.06494141 C-127.69545034 141.39537526 -127.7259636 138.72762042 -127.76416016 136.05810547 C-127.81907986 132.19605668 -127.84082638 128.33504357 -127.85546875 124.47265625 C-127.88947281 122.69565338 -127.88947281 122.69565338 -127.92416382 120.88275146 C-127.90578011 113.63021693 -127.02729696 108.03765483 -122.33203125 102.30078125 C-115.98003619 97.19235669 -110.67302363 96.14731348 -102.62597656 96.18725586 C-101.85486038 96.18710983 -101.0837442 96.18696381 -100.28926086 96.18681335 C-97.74619715 96.18750876 -95.20320713 96.19528376 -92.66015625 96.203125 C-90.89467407 96.2049905 -89.12919138 96.20641378 -87.3637085 96.20741272 C-82.72111579 96.2112275 -78.07855445 96.22104893 -73.43597412 96.2321167 C-68.69690373 96.24235315 -63.95782826 96.24691513 -59.21875 96.25195312 C-49.92316331 96.26267212 -40.62759989 96.27973608 -31.33203125 96.30078125 C-31.3409137 95.30377197 -31.34979614 94.3067627 -31.35894775 93.27954102 C-31.44018717 83.86376499 -31.50007022 74.44806049 -31.53927994 65.03201294 C-31.5601161 60.19160302 -31.58836091 55.35147702 -31.63378906 50.51123047 C-31.67738883 45.83630601 -31.70119821 41.16165391 -31.71154022 36.48654175 C-31.71890629 34.70681473 -31.73329047 32.92710189 -31.75495148 31.14749146 C-31.78417403 28.64618219 -31.7879795 26.14598493 -31.78613281 23.64453125 C-31.80051392 22.91588364 -31.81489502 22.18723602 -31.82971191 21.43650818 C-31.78643565 15.98595763 -30.26027803 11.89570412 -27.33203125 7.30078125 C-25.47265625 5.49609375 -25.47265625 5.49609375 -23.58203125 4.42578125 C-22.9684375 4.05710937 -22.35484375 3.6884375 -21.72265625 3.30859375 C-14.53480332 0.27842046 -7.69339679 -0.00688858 0 0 Z " fill="#BD0000" transform="translate(198.33203125,18.69921875)"/>
<path d="M0 0 C0.33 0 0.66 0 1 0 C1.04647502 9.62333286 1.08194597 19.24662669 1.10362434 28.87004757 C1.11403231 33.33926819 1.12813657 37.80841166 1.15087891 42.27758789 C1.1727143 46.59588434 1.18459106 50.91410687 1.18975449 55.2324543 C1.19343112 56.87455978 1.20061038 58.51666152 1.21146011 60.15873528 C1.35295067 82.47367147 1.35295067 82.47367147 -5 91 C-12.8495639 96.51817633 -21.67007037 96.16757588 -30.8984375 96.203125 C-32.04736481 96.20882507 -33.19629211 96.21452515 -34.3800354 96.22039795 C-36.80575648 96.22982494 -39.23149024 96.23637276 -41.65722656 96.24023438 C-45.35504583 96.24994759 -49.05231082 96.28099679 -52.75 96.3125 C-55.11197588 96.31903005 -57.47395572 96.32428051 -59.8359375 96.328125 C-61.48473404 96.3466452 -61.48473404 96.3466452 -63.1668396 96.36553955 C-70.82798607 96.34345598 -76.77398827 95.66496621 -82.875 90.625 C-84.91213015 88.10854511 -86.03496272 86.07057316 -87 83 C-86.01 83 -85.02 83 -84 83 C-83.67 84.98 -83.34 86.96 -83 89 C-82.1646875 89.185625 -82.1646875 89.185625 -81.3125 89.375 C-78.77885636 90.05976855 -76.42078968 90.99133763 -74 92 C-74 92.66 -74 93.32 -74 94 C-54.2 93.67 -34.4 93.34 -14 93 C-14 92.34 -14 91.68 -14 91 C-12.02 91 -10.04 91 -8 91 C-8 90.34 -8 89.68 -8 89 C-7.01 88.34 -6.02 87.68 -5 87 C-4.24171621 84.84715094 -4.24171621 84.84715094 -3.875 82.4375 C-3.08023483 78.08023483 -3.08023483 78.08023483 -2 77 C-1.88043293 74.63313079 -1.82459382 72.29408688 -1.81054688 69.92578125 C-1.80225357 69.18597015 -1.79396027 68.44615906 -1.78541565 67.68392944 C-1.76797872 66.07262342 -1.75282196 64.46129152 -1.73963928 62.84994507 C-1.71867959 60.30394732 -1.69165223 57.75807981 -1.66296387 55.2121582 C-1.60316559 49.808155 -1.55104967 44.40409201 -1.5 39 C-1.44087001 32.74052991 -1.37865337 26.48112414 -1.30812073 20.22177124 C-1.28144846 17.70621787 -1.2606929 15.19065838 -1.2401123 12.67504883 C-1.22351613 11.14143563 -1.2066449 9.60782538 -1.18945312 8.07421875 C-1.18526871 7.36872894 -1.18108429 6.66323914 -1.17677307 5.93637085 C-1.11384346 1.11384346 -1.11384346 1.11384346 0 0 Z " fill="#A21F21" transform="translate(256,205)"/>
<path d="M0 0 C0.66 0 1.32 0 2 0 C1.91174084 1.39692939 1.80355166 2.79260452 1.6875 4.1875 C1.62949219 4.96480469 1.57148438 5.74210937 1.51171875 6.54296875 C1 9 1 9 -0.51168823 11.19650269 C-2.41077041 14.77375841 -2.35491918 17.27207403 -2.32470703 21.31298828 C-2.32353882 22.03066376 -2.32237061 22.74833923 -2.32116699 23.48776245 C-2.31400626 25.84891128 -2.28581975 28.20932704 -2.2578125 30.5703125 C-2.24967222 32.21507115 -2.24301045 33.85983773 -2.23776245 35.50460815 C-2.22066944 39.82724112 -2.18642881 44.14955889 -2.14770508 48.4720459 C-2.08843459 55.39745197 -2.05465096 62.32301906 -2.02193832 69.24859238 C-2.00797153 71.66776718 -1.98638246 74.08678338 -1.96365356 76.50588989 C-1.95363124 77.98585908 -1.94376555 79.46582934 -1.93408203 80.94580078 C-1.92281281 82.23865997 -1.91154358 83.53151917 -1.89993286 84.86355591 C-2 88 -2 88 -3 91 C-30.72 91 -58.44 91 -87 91 C-82.76405811 88.88202906 -79.86735166 88.72754803 -75.29394531 88.77294922 C-74.52282913 88.77265717 -73.75171295 88.77236511 -72.95722961 88.77206421 C-70.4140794 88.77345507 -67.8712239 88.78900473 -65.328125 88.8046875 C-63.56264404 88.8084185 -61.79716101 88.81126506 -60.03167725 88.81326294 C-55.38904078 88.82089257 -50.74652981 88.84053533 -46.10394287 88.8626709 C-41.36488543 88.88314374 -36.62580768 88.89226774 -31.88671875 88.90234375 C-22.59109075 88.92378183 -13.29555582 88.95790973 -4 89 C-4.00888245 88.00299072 -4.01776489 87.00598145 -4.0269165 85.97875977 C-4.10815592 76.56298374 -4.16803897 67.14727924 -4.20724869 57.73123169 C-4.22808485 52.89082177 -4.25632966 48.05069577 -4.30175781 43.21044922 C-4.34535758 38.53552476 -4.36916696 33.86087266 -4.37950897 29.1857605 C-4.38687504 27.40603348 -4.40125922 25.62632064 -4.42292023 23.84671021 C-4.45214278 21.34540094 -4.45594825 18.84520368 -4.45410156 16.34375 C-4.46848267 15.61510239 -4.48286377 14.88645477 -4.49768066 14.13572693 C-4.4530974 8.52056312 -2.76391868 4.87636607 0 0 Z " fill="#A2292C" transform="translate(171,26)"/>
<path d="M0 0 C27.39 0 54.78 0 83 0 C83 28.05 83 56.1 83 85 C82.67 85 82.34 85 82 85 C81.09631857 80.3878481 80.86236582 75.93397431 80.88647461 71.25048828 C80.88632858 70.49858719 80.88618256 69.7466861 80.8860321 68.97200012 C80.88672472 66.50474082 80.89448642 64.0375585 80.90234375 61.5703125 C80.90421025 59.85252931 80.90563306 58.13474558 80.90663147 56.41696167 C80.91043841 51.90920527 80.92025304 47.4014814 80.93133545 42.89373779 C80.94158885 38.288538 80.94613749 33.68333293 80.95117188 29.078125 C80.96187702 20.05206909 80.97893144 11.02603726 81 2 C80.04422058 2.00444122 79.08844116 2.00888245 78.10369873 2.01345825 C69.0986794 2.05399246 60.09367856 2.0839787 51.08858871 2.10362434 C46.45892282 2.11406387 41.82933055 2.12822619 37.19970703 2.15087891 C32.73230515 2.17260121 28.26497411 2.18456736 23.7975235 2.18975449 C22.09267308 2.19345134 20.38782657 2.20067031 18.68300629 2.21146011 C16.29607244 2.22596692 13.90943174 2.22797829 11.52246094 2.22705078 C10.81683517 2.23424133 10.11120941 2.24143188 9.38420105 2.24884033 C5.43347297 2.23221646 3.66156479 1.83078239 0 0 Z " fill="#A22426" transform="translate(86,203)"/>
<path d="M0 0 C25.41 0 50.82 0 77 0 C77.375 38 77.375 38 77.47802734 49.9609375 C77.5179744 53.52540552 77.5179744 53.52540552 77.56045532 57.08984375 C77.57804199 58.66695697 77.5918899 60.24411478 77.60269165 61.82128906 C77.61988254 64.2221948 77.64925579 66.62268777 77.68115234 69.0234375 C77.68441056 70.06230606 77.68441056 70.06230606 77.6877346 71.12216187 C77.80206416 77.86363697 78.87445147 84.49926863 83 90 C85.57183314 92.27537692 85.57183314 92.27537692 88 94 C86.515 94.495 86.515 94.495 85 95 C85 94.34 85 93.68 85 93 C84.21625 92.938125 83.4325 92.87625 82.625 92.8125 C81.325625 92.4103125 81.325625 92.4103125 80 92 C78.875 89.75 78.875 89.75 78 87 C77.49554352 86.27923279 76.99108704 85.55846558 76.47134399 84.81585693 C74.60465372 81.24338661 74.56705142 78.13036792 74.58349609 74.19628906 C74.57491074 73.42663315 74.56632538 72.65697723 74.55747986 71.86399841 C74.53247271 69.33111346 74.52804667 66.79862197 74.5234375 64.265625 C74.50912583 62.50395513 74.49336852 60.74229646 74.47622681 58.98065186 C74.43441394 54.35164609 74.4093867 49.7227098 74.38873291 45.09356689 C74.35287999 37.6697823 74.29207914 30.24616868 74.23024368 22.82256317 C74.21109866 20.22499133 74.19941005 17.62746538 74.18881226 15.02984619 C74.17860636 13.44860736 74.16824897 11.86736949 74.15771484 10.28613281 C74.15667252 9.55887497 74.15563019 8.83161713 74.15455627 8.08232117 C74.41606221 4.75705543 74.41606221 4.75705543 73 2 C70.73079775 1.8758378 68.4577355 1.82196252 66.18530273 1.79467773 C65.47314606 1.78477814 64.76098938 1.77487854 64.0272522 1.76467896 C61.66273372 1.73297788 59.29819511 1.70827276 56.93359375 1.68359375 C55.29833948 1.66303164 53.66309062 1.64203537 52.02784729 1.62062073 C47.71571214 1.56532328 43.40352842 1.51594799 39.09130859 1.46777344 C34.69429176 1.41761428 30.2973458 1.36189913 25.90039062 1.30664062 C17.26698693 1.19896527 8.6335241 1.09754129 0 1 C0 0.67 0 0.34 0 0 Z " fill="#FFD6D5" transform="translate(90,205)"/>
<path d="M0 0 C0.33 0 0.66 0 1 0 C1 24.42 1 48.84 1 74 C3.97 73.505 3.97 73.505 7 73 C9.33586846 72.90644783 11.6739892 72.86208786 14.01171875 72.85473633 C14.68570709 72.85137772 15.35969543 72.8480191 16.05410767 72.84455872 C18.26525757 72.83511837 20.47633124 72.83310937 22.6875 72.83203125 C24.23396841 72.82881478 25.78043652 72.82545042 27.3269043 72.82194519 C30.56136785 72.8159719 33.79580476 72.81410353 37.03027344 72.81469727 C41.16608116 72.814799 45.30171763 72.80112737 49.43748474 72.78392506 C52.62887349 72.7727868 55.820221 72.77077859 59.0116272 72.77130699 C60.5361897 72.77013038 62.06075338 72.76572656 63.58529663 72.75797462 C65.71974598 72.74813394 67.85382545 72.7510682 69.98828125 72.75708008 C71.20040283 72.75565506 72.41252441 72.75423004 73.66137695 72.75276184 C77.09805385 73.00726127 79.77677028 73.82301949 83 75 C85.32694964 75.37531446 87.65976685 75.71917202 90 76 C90 76.66 90 77.32 90 78 C90.66 78 91.32 78 92 78 C92.33 79.98 92.66 81.96 93 84 C92.53851563 83.59007813 92.07703125 83.18015625 91.6015625 82.7578125 C90.94929688 82.21898438 90.29703125 81.68015625 89.625 81.125 C88.99851562 80.59132813 88.37203125 80.05765625 87.7265625 79.5078125 C78.80620482 74.57477802 67.52087193 75.6560894 57.6171875 75.5859375 C56.1380922 75.56896677 54.6590064 75.55114625 53.17993164 75.5324707 C47.74506318 75.4697228 42.31001592 75.42331634 36.875 75.375 C24.70625 75.25125 12.5375 75.1275 0 75 C0 50.25 0 25.5 0 0 Z " fill="#FBD5D7" transform="translate(257,40)"/>
<path d="M0 0 C0.33 0 0.66 0 1 0 C1 25.08 1 50.16 1 76 C-19.13462229 76.32978354 -19.13462229 76.32978354 -27.6953125 76.453125 C-33.54438058 76.5374547 -39.39335706 76.62402481 -45.2421875 76.72363281 C-49.95585751 76.8037712 -54.66957989 76.87411505 -59.38350296 76.93757248 C-61.18494712 76.96356325 -62.98634327 76.99312657 -64.78767014 77.02626419 C-67.30421542 77.07195811 -69.82062949 77.10512415 -72.33740234 77.13525391 C-73.46273125 77.16006584 -73.46273125 77.16006584 -74.61079407 77.18537903 C-76.40819693 77.20025852 -78.20588013 77.10960075 -80 77 C-80.66 76.34 -81.32 75.68 -82 75 C-79.00181255 73.50090628 -75.93083292 73.87873109 -72.64453125 73.90234375 C-71.88667328 73.90380402 -71.12881531 73.90526428 -70.34799194 73.9067688 C-68.7001175 73.91057855 -67.05224718 73.91669906 -65.40438843 73.92483521 C-62.79928774 73.93756456 -60.19423778 73.94410555 -57.58911133 73.94897461 C-51.11891063 73.96236818 -44.64875813 73.98658139 -38.17858887 74.01037598 C-32.71308671 74.03006592 -27.2476023 74.04572349 -21.78207397 74.05593872 C-19.21055936 74.06244169 -16.63911739 74.07494999 -14.06762695 74.08764648 C-12.49690821 74.09127786 -10.92618878 74.09462973 -9.35546875 74.09765625 C-8.63644379 74.10282257 -7.91741882 74.10798889 -7.17660522 74.11331177 C-3.46414417 74.16809434 -3.46414417 74.16809434 0 73 C0 48.91 0 24.82 0 0 Z " fill="#FAD1D4" transform="translate(166,39)"/>
<path d="M0 0 C6.91927943 -0.07657284 13.83844806 -0.12881775 20.75805664 -0.16479492 C23.10803308 -0.1798061 25.45798186 -0.20022135 27.80786133 -0.22631836 C31.20140442 -0.26304034 34.5945745 -0.27980365 37.98828125 -0.29296875 C39.02519608 -0.30845261 40.0621109 -0.32393646 41.13044739 -0.33988953 C48.61698213 -0.34158557 57.31164852 -0.15687615 63.24409485 4.92073059 C68.71480715 10.80019353 70.30566868 15.92901746 70.22705078 23.91137695 C70.22734283 24.69239273 70.22763489 25.47340851 70.22793579 26.27809143 C70.22654736 28.84826945 70.21100921 31.41815414 70.1953125 33.98828125 C70.19158064 35.77475323 70.18873448 37.56122726 70.18673706 39.34770203 C70.17911424 44.0412871 70.15947736 48.73474768 70.1373291 53.42828369 C70.11684155 58.22105221 70.10772912 63.01384091 70.09765625 67.80664062 C70.0762302 77.20448167 70.04211056 86.60223047 70 96 C69.67 96 69.34 96 69 96 C68.98969254 95.18726624 68.97938507 94.37453247 68.96876526 93.53717041 C68.87026309 85.82958586 68.76768033 78.12207098 68.66066074 70.41460037 C68.60579802 66.45334594 68.55244238 62.49208383 68.50268555 58.53076172 C68.45449417 54.69869183 68.40214217 50.86669817 68.34705925 47.03472137 C68.32688053 45.58212973 68.30813161 44.12951741 68.29092598 42.67688751 C68.20965518 35.88769248 68.08065921 29.10154653 67.66772461 22.32324219 C67.61257187 21.4103241 67.55741913 20.49740601 67.50059509 19.55682373 C66.91177561 16.54938788 65.70021273 14.52688021 64 12 C63.34 12.33 62.68 12.66 62 13 C61.505 9.535 61.505 9.535 61 6 C60.236875 5.87625 59.47375 5.7525 58.6875 5.625 C56 5 56 5 53 3 C47.46707169 1.66496698 41.79409712 1.77848312 36.1328125 1.68359375 C35.09808807 1.66281265 34.06336365 1.64203156 32.99728394 1.62062073 C29.70658726 1.5554718 26.41581383 1.49640191 23.125 1.4375 C20.88801304 1.3942818 18.65103371 1.35066647 16.4140625 1.30664062 C10.94278842 1.19982611 5.47143874 1.09799663 0 1 C0 0.67 0 0.34 0 0 Z " fill="#A11D1F" transform="translate(187,19)"/>
<path d="M0 0 C0 0.66 0 1.32 0 2 C-0.99 2.66 -1.98 3.32 -3 4 C-3.99 5.485 -3.99 5.485 -5 7 C-5.99 7.33 -6.98 7.66 -8 8 C-9.84591621 11.50839361 -10.25513727 14.48361032 -10.2746582 18.41015625 C-10.28419022 19.46895996 -10.29372223 20.52776367 -10.30354309 21.61865234 C-10.30263168 22.75512207 -10.30172028 23.8915918 -10.30078125 25.0625 C-10.30506638 26.24537598 -10.3093515 27.42825195 -10.31376648 28.64697266 C-10.31950716 31.15184897 -10.32001198 33.65674196 -10.31567383 36.16162109 C-10.31253448 39.95830536 -10.33590565 43.75419445 -10.36132812 47.55078125 C-10.36360346 49.99218653 -10.36430353 52.43359388 -10.36328125 54.875 C-10.372491 55.99527588 -10.38170074 57.11555176 -10.39118958 58.26977539 C-10.34820316 65.75087163 -10.2663689 74.15161578 -7 81 C-4.11250684 82.3947844 -4.11250684 82.3947844 -1 83 C-0.01 83.33 0.98 83.66 2 84 C2 84.66 2 85.32 2 86 C-2.87773605 85.54625711 -5.52177888 84.47822112 -9 81 C-12.26234941 75.52391349 -13.10977692 70.63827936 -13.19287109 64.34277344 C-13.20893402 63.23101746 -13.22499695 62.11926147 -13.24154663 60.97381592 C-13.28627908 55.90393899 -13.32704924 50.83418847 -13.35009766 45.76416016 C-13.36341909 43.09459401 -13.39393235 40.42683917 -13.43212891 37.75732422 C-13.48704861 33.89527543 -13.50879513 30.03426232 -13.5234375 26.171875 C-13.54610687 24.98720642 -13.56877625 23.80253784 -13.59213257 22.58197021 C-13.57360035 15.27084607 -12.61133156 9.83944353 -8 4 C-5.60285628 1.83493026 -3.3577738 0 0 0 Z " fill="#A11D21" transform="translate(84,117)"/>
<path d="M0 0 C0.99 0 1.98 0 3 0 C3 1.98 3 3.96 3 6 C3.66 6 4.32 6 5 6 C5.85066683 10.3952515 6.10571244 14.51489317 6.0625 18.98828125 C6.05441897 20.34025051 6.04636326 21.69221991 6.03833008 23.04418945 C6.02578605 24.46696171 6.01300519 25.88973189 6 27.3125 C5.92873942 36.19047361 5.93700181 44.96691302 6.8125 53.8125 C7.37138164 60.960302 5.77663001 65.94955123 2 72 C1.34 72 0.68 72 0 72 C0.32452148 71.11046631 0.64904297 70.22093262 0.98339844 69.30444336 C2.57841411 63.68047438 2.28543006 57.92875956 2.265625 52.12890625 C2.26753845 50.89260971 2.2694519 49.65631317 2.27142334 48.3825531 C2.27278111 45.77448319 2.26911321 43.16640644 2.26074219 40.55834961 C2.2500464 36.57975986 2.26064702 32.60162257 2.2734375 28.62304688 C2.27211566 26.08333234 2.26955275 23.54361809 2.265625 21.00390625 C2.26967346 19.82035049 2.27372192 18.63679474 2.27789307 17.41737366 C2.24315278 11.25666135 1.81924906 5.89630003 0 0 Z " fill="#FDDFDB" transform="translate(350,124)"/>
<path d="M0 0 C-0.33 1.65 -0.66 3.3 -1 5 C-1.99661148 4.83923477 -2.99322296 4.67846954 -4.02003479 4.51283264 C-7.91318727 3.95933393 -11.7451057 3.84112017 -15.67944336 3.79467773 C-16.41198334 3.78477814 -17.14452332 3.77487854 -17.89926147 3.76467896 C-20.29609051 3.73334775 -22.69293929 3.70842009 -25.08984375 3.68359375 C-26.76136256 3.66299964 -28.43287645 3.64200256 -30.10438538 3.62062073 C-34.48548374 3.56565364 -38.86662712 3.51613343 -43.24780273 3.46777344 C-48.5142937 3.40849733 -53.78070314 3.34241008 -59.04712677 3.27747345 C-67.03136769 3.17978344 -75.01566298 3.09070917 -83 3 C-83 26.76 -83 50.52 -83 75 C-83.33 75 -83.66 75 -84 75 C-84 50.91 -84 26.82 -84 2 C-78.49957031 1.93941406 -72.99914062 1.87882813 -67.33203125 1.81640625 C-63.84569538 1.77590737 -60.35936715 1.7351318 -56.87304688 1.69335938 C-51.34044002 1.6270951 -45.8078344 1.56185084 -40.27514648 1.50268555 C-35.81417629 1.45491684 -31.35328108 1.40256977 -26.89240074 1.34705925 C-25.19119829 1.32669228 -23.48997533 1.30797002 -21.78873634 1.29092598 C-19.40441102 1.26675635 -17.02022593 1.23671948 -14.63598633 1.20532227 C-13.93395584 1.1995668 -13.23192535 1.19381134 -12.50862122 1.18788147 C-8.26587898 1.12445177 -4.17524707 0 0 0 Z " fill="#FDD5D6" transform="translate(341,203)"/>
<path d="M0 0 C9.5715 -0.069843 19.14291081 -0.12298406 28.71461105 -0.15543652 C33.16025616 -0.17102054 37.60572553 -0.19212424 42.05126953 -0.22631836 C46.35013785 -0.25917329 50.64883828 -0.27690747 54.94782257 -0.28463173 C56.57909026 -0.29012875 58.21034988 -0.30086155 59.8415451 -0.31719017 C69.06462844 -0.40575259 78.28335858 -0.4841414 87 3 C87.495 3.99 87.495 3.99 88 5 C86.33388095 5.042721 84.66617115 5.04063832 83 5 C82.505 4.505 82.505 4.505 82 4 C77.15193918 3.13616162 72.45386134 2.86309803 67.53588867 2.82641602 C66.82606842 2.819729 66.11624817 2.81304199 65.38491821 2.80615234 C63.85720148 2.79219687 62.32946505 2.7802734 60.80171776 2.77020454 C58.38517808 2.75368205 55.96878692 2.73044677 53.55232239 2.70530701 C46.68673159 2.63479535 39.82108574 2.57417199 32.95532227 2.52319336 C28.74559578 2.49146876 24.53605103 2.45022977 20.32647133 2.40299797 C18.72328244 2.38696163 17.12005191 2.37464761 15.51680565 2.36609077 C13.28339399 2.35398523 11.05041416 2.32986264 8.81713867 2.30297852 C7.54585617 2.29267105 6.27457367 2.28236359 4.96476746 2.27174377 C2 2 2 2 0 0 Z " fill="#A22628" transform="translate(257,115)"/>
<path d="M0 0 C0.99 0 1.98 0 3 0 C3.33 1.98 3.66 3.96 4 6 C4.556875 6.12375 5.11375 6.2475 5.6875 6.375 C8.22114364 7.05976855 10.57921032 7.99133763 13 9 C13 9.66 13 10.32 13 11 C33.13 11 53.26 11 74 11 C74 11.33 74 11.66 74 12 C68.06098402 13.28265266 62.14680252 13.17983778 56.1015625 13.203125 C54.37817154 13.21167511 54.37817154 13.21167511 52.6199646 13.22039795 C50.19424352 13.22982494 47.76850976 13.23637276 45.34277344 13.24023438 C41.64495417 13.24994759 37.94768918 13.28099679 34.25 13.3125 C31.88802412 13.31903005 29.52604428 13.32428051 27.1640625 13.328125 C25.51526596 13.3466452 25.51526596 13.3466452 23.8331604 13.36553955 C16.17201393 13.34345598 10.22601173 12.66496621 4.125 7.625 C2.08786985 5.10854511 0.96503728 3.07057316 0 0 Z " fill="#A22829" transform="translate(169,288)"/>
<path d="M0 0 C4.17202957 3.62307831 6.10754423 6.6124035 7 12 C7.29284729 16.30296963 7.30408715 20.59448011 7.30078125 24.90625 C7.30506638 26.14491821 7.3093515 27.38358643 7.31376648 28.65979004 C7.32095704 31.93847876 7.31790071 35.21698253 7.31219482 38.4956665 C7.31249975 40.49836508 7.32254653 42.50076851 7.33618164 44.50341797 C7.36070704 48.36700235 7.36483619 52.2300974 7.36328125 56.09375 C7.372491 57.28246704 7.38170074 58.47118408 7.39118958 59.69592285 C7.35657721 65.90879967 7.00829544 70.51536684 4 76 C3.4375 74.0625 3.4375 74.0625 3 72 C3.495 71.505 3.495 71.505 4 71 C4.09396057 69.06693502 4.11743517 67.13041162 4.11352539 65.19506836 C4.11344986 63.95385727 4.11337433 62.71264618 4.11329651 61.43382263 C4.10818911 60.0691626 4.1029731 58.70450298 4.09765625 57.33984375 C4.095792 55.95121817 4.09436813 54.56259193 4.09336853 53.17396545 C4.08954387 49.51278885 4.07971403 45.8516517 4.06866455 42.19049072 C4.05844932 38.45707737 4.05387067 34.72365766 4.04882812 30.99023438 C4.03809171 23.66013823 4.02101591 16.33007464 4 9 C3.34 9 2.68 9 2 9 C1.34 6.03 0.68 3.06 0 0 Z " fill="#A11F21" transform="translate(346,120)"/>
<path d="M0 0 C1.28583984 0.10054687 1.28583984 0.10054687 2.59765625 0.203125 C5.26002646 0.82538181 6.22823557 1.66525781 7.9375 3.75 C4.54505137 4.88081621 2.39415167 4.44681862 -1.0625 3.75 C-2.71626582 3.65397469 -4.37304431 3.60231698 -6.02954102 3.58886719 C-6.99146866 3.57925964 -7.9533963 3.5696521 -8.94447327 3.55975342 C-9.97471115 3.55550354 -11.00494904 3.55125366 -12.06640625 3.546875 C-13.14067368 3.54117493 -14.2149411 3.53547485 -15.32176208 3.52960205 C-17.59543884 3.52016553 -19.8691292 3.51362343 -22.14282227 3.50976562 C-25.58830295 3.50010292 -29.03317589 3.46908372 -32.47851562 3.4375 C-34.69530899 3.4309649 -36.91210658 3.42571642 -39.12890625 3.421875 C-40.14497452 3.4095282 -41.16104279 3.3971814 -42.207901 3.38446045 C-49.52403118 3.40677406 -56.04895286 4.69975408 -63.0625 6.75 C-63.0625 6.09 -63.0625 5.43 -63.0625 4.75 C-62.4025 4.75 -61.7425 4.75 -61.0625 4.75 C-61.0625 4.09 -61.0625 3.43 -61.0625 2.75 C-50.25591656 0.27972586 -39.56821805 0.55239396 -28.5625 0.6875 C-25.83110268 0.71520913 -23.09975959 0.73987015 -20.36828613 0.75868225 C-18.68098058 0.77085357 -16.9937026 0.78837147 -15.30651855 0.81199646 C-10.05142212 0.85704868 -5.20992635 -0.47148655 0 0 Z " fill="#FEECEE" transform="translate(238.0625,16.25)"/>
<path d="M0 0 C0.99 0.66 1.98 1.32 3 2 C2.071875 2.309375 2.071875 2.309375 1.125 2.625 C-1.91342741 4.59104127 -2.0877074 6.54632086 -3 10 C-3.34147064 11.06871841 -3.68294128 12.13743683 -4.03475952 13.23854065 C-5.03512505 17.13687932 -5.27706204 20.47746628 -5.31884766 24.49584961 C-5.32889328 25.20888245 -5.3389389 25.92191528 -5.34928894 26.65655518 C-5.3799178 28.98847729 -5.39709883 31.3202857 -5.4140625 33.65234375 C-5.43279054 35.27902694 -5.45236516 36.90570059 -5.4727478 38.53236389 C-5.52390231 42.79507803 -5.56361686 47.05782361 -5.60089111 51.32067871 C-5.64103582 55.67805654 -5.69208023 60.03530548 -5.7421875 64.39257812 C-5.83874906 72.9282971 -5.92321655 81.4640803 -6 90 C-6.33 90 -6.66 90 -7 90 C-7.33 66.57 -7.66 43.14 -8 19 C-8.66 18.67 -9.32 18.34 -10 18 C-10 15.36 -10 12.72 -10 10 C-9.34 10 -8.68 10 -8 10 C-7.67 10.66 -7.34 11.32 -7 12 C-5.92474806 9.34771188 -4.90543849 6.71631546 -4 4 C-2.70644173 2.62804426 -1.37701298 1.28817344 0 0 Z " fill="#FEEFE9" transform="translate(172,22)"/>
<path d="M0 0 C0.99 0 1.98 0 3 0 C3.00586624 0.90487152 3.01173248 1.80974304 3.01777649 2.74203491 C3.07587767 11.30388649 3.1480533 19.86548203 3.23571491 28.42708397 C3.28028615 32.82783523 3.31957079 37.22849674 3.34643555 41.62939453 C3.37260156 45.88303762 3.41309605 50.13633283 3.46318626 54.38975906 C3.47976563 56.00586213 3.49133516 57.62202524 3.49761391 59.23820114 C3.48722447 74.98084669 3.48722447 74.98084669 10 89 C12.57183314 91.27537692 12.57183314 91.27537692 15 93 C13.515 93.495 13.515 93.495 12 94 C12 93.34 12 92.68 12 92 C11.21625 91.938125 10.4325 91.87625 9.625 91.8125 C8.75875 91.544375 7.8925 91.27625 7 91 C5.875 88.75 5.875 88.75 5 86 C4.49554352 85.27890549 3.99108704 84.55781097 3.47134399 83.81486511 C1.60648518 80.24715692 1.56703646 77.14121352 1.58349609 73.2121582 C1.57061806 72.06008377 1.57061806 72.06008377 1.55747986 70.88473511 C1.53247 68.35665649 1.52804604 65.82897214 1.5234375 63.30078125 C1.50912466 61.541507 1.49336713 59.78224397 1.47622681 58.022995 C1.43441082 53.39930442 1.40938747 48.77568336 1.38873291 44.15185547 C1.3528858 36.74026706 1.29201267 29.32884995 1.23024368 21.91744041 C1.21112363 19.32600829 1.19941642 16.73462207 1.18881226 14.1431427 C1.17860404 12.56198018 1.16824645 10.98081861 1.15771484 9.3996582 C1.15667252 8.67599564 1.15563019 7.95233307 1.15455627 7.20674133 C1.17777182 3.47860414 1.17777182 3.47860414 0 0 Z " fill="#FEEDE9" transform="translate(163,206)"/>
<path d="M0 0 C0.66 0 1.32 0 2 0 C1.91174084 1.39692939 1.80355166 2.79260452 1.6875 4.1875 C1.62949219 4.96480469 1.57148438 5.74210937 1.51171875 6.54296875 C1 9 1 9 -0.51069641 11.19352722 C-2.41486077 14.78177175 -2.36129182 17.30723464 -2.34057617 21.3605957 C-2.34101425 22.08309006 -2.34145233 22.80558441 -2.34190369 23.54997253 C-2.33982244 25.92552207 -2.31652374 28.30035582 -2.29296875 30.67578125 C-2.28737041 32.32772944 -2.28310144 33.97968262 -2.28010559 35.63163757 C-2.26867551 39.97020323 -2.2392243 44.30846547 -2.20599365 48.64691162 C-2.17525306 53.07771704 -2.16159174 57.5085717 -2.14648438 61.93945312 C-2.11435268 70.626441 -2.06317876 79.31318271 -2 88 C-2.33 88 -2.66 88 -3 88 C-3.35736298 73.66176067 -3.67265037 59.32306527 -3.94281006 44.98291016 C-3.99630033 42.19296735 -4.05370536 39.4031309 -4.11181641 36.61328125 C-4.19142064 32.66869821 -4.24886663 28.72443144 -4.28710938 24.77923584 C-4.30387844 23.35648537 -4.32766887 21.93379828 -4.35888672 20.5112915 C-4.52776202 12.54545281 -4.36158351 6.79615577 0 0 Z " fill="#A00A0F" transform="translate(171,26)"/>
<path d="M0 0 C27.39 0 54.78 0 83 0 C83 0.33 83 0.66 83 1 C81.55086967 1.01213028 81.55086967 1.01213028 80.07246399 1.02450562 C70.96461159 1.10201595 61.85690768 1.18976764 52.74924946 1.28752708 C48.06699393 1.33745666 43.38476059 1.38378704 38.70239258 1.421875 C34.18300682 1.45876992 29.66380825 1.50514139 25.14458275 1.55806351 C23.42106602 1.57658508 21.69750919 1.5917013 19.97393227 1.60334396 C17.55835457 1.62024474 15.1432035 1.64928875 12.7277832 1.68115234 C11.66071136 1.68439262 11.66071136 1.68439262 10.57208252 1.68769836 C6.58511097 1.75481237 3.63010222 2.39342627 0 4 C-2.3125 3.625 -2.3125 3.625 -4 3 C-2.68 2.67 -1.36 2.34 0 2 C0 1.34 0 0.68 0 0 Z " fill="#B10406" transform="translate(84,117)"/>
<path d="M0 0 C6.91927943 -0.07657284 13.83844806 -0.12881775 20.75805664 -0.16479492 C23.10803308 -0.1798061 25.45798186 -0.20022135 27.80786133 -0.22631836 C31.20140442 -0.26304034 34.5945745 -0.27980365 37.98828125 -0.29296875 C39.02519608 -0.30845261 40.0621109 -0.32393646 41.13044739 -0.33988953 C48.851563 -0.34163872 57.33157565 0.12355932 63.60546875 5.04296875 C64.12753906 5.75066406 64.64960938 6.45835938 65.1875 7.1875 C66.01314453 8.26064453 66.01314453 8.26064453 66.85546875 9.35546875 C67.23316406 9.89816406 67.61085938 10.44085938 68 11 C67.34 11.66 66.68 12.32 66 13 C65.649375 12.236875 65.29875 11.47375 64.9375 10.6875 C62.43113606 7.21093066 59.95936203 6.48476076 56 5 C55.01 4.34 54.02 3.68 53 3 C47.46707169 1.66496698 41.79409712 1.77848312 36.1328125 1.68359375 C35.09808807 1.66281265 34.06336365 1.64203156 32.99728394 1.62062073 C29.70658726 1.5554718 26.41581383 1.49640191 23.125 1.4375 C20.88801304 1.3942818 18.65103371 1.35066647 16.4140625 1.30664062 C10.94278842 1.19982611 5.47143874 1.09799663 0 1 C0 0.67 0 0.34 0 0 Z " fill="#A43536" transform="translate(187,19)"/>
<path d="M0 0 C0.66 0.33 1.32 0.66 2 1 C1.51202438 1.86045929 1.02404877 2.72091858 0.52128601 3.60745239 C-1.08637509 7.19262098 -1.36480628 9.38779147 -1.34057617 13.28076172 C-1.34034958 14.5015744 -1.34012299 15.72238708 -1.33988953 16.98019409 C-1.32440567 18.28352692 -1.30892181 19.58685974 -1.29296875 20.9296875 C-1.28736703 22.28874237 -1.28309966 23.64780334 -1.28010559 25.00686646 C-1.26870194 28.56784055 -1.23927429 32.12844215 -1.20599365 35.68927002 C-1.17519543 39.32925377 -1.16157952 42.96929825 -1.14648438 46.609375 C-1.11439956 53.73973486 -1.06325826 60.86984299 -1 68 C-3.63345925 65.36654075 -3.28118245 64.12952206 -3.35058594 60.45214844 C-3.37691101 59.29044128 -3.40323608 58.12873413 -3.43035889 56.93182373 C-3.45709686 55.03971161 -3.45709686 55.03971161 -3.484375 53.109375 C-3.5084845 51.81686829 -3.53259399 50.52436157 -3.55743408 49.19268799 C-3.60739649 46.45225241 -3.65016178 43.71182053 -3.68798828 40.97119141 C-3.7369371 37.46947573 -3.80406148 33.96839215 -3.87673569 30.46709824 C-3.94360028 27.11883916 -3.9944837 23.77039206 -4.046875 20.421875 C-4.07279724 19.16856384 -4.09871948 17.91525269 -4.12542725 16.6239624 C-4.13914368 15.44964661 -4.15286011 14.27533081 -4.16699219 13.06542969 C-4.18316589 12.0366571 -4.1993396 11.00788452 -4.21600342 9.94793701 C-3.97525173 6.66224452 -3.26211449 4.03865417 -2 1 C-1.34 0.67 -0.68 0.34 0 0 Z " fill="#FBCECB" transform="translate(73,123)"/>
<path d="M0 0 C0.99 0.33 1.98 0.66 3 1 C2.67 1.33 2.34 1.66 2 2 C1.90567015 4.20867831 1.88257569 6.42041521 1.88647461 8.63110352 C1.88632858 9.32375305 1.88618256 10.01640259 1.8860321 10.7300415 C1.88673126 13.02969446 1.89452372 15.32926737 1.90234375 17.62890625 C1.90420792 19.21931412 1.90563183 20.80972257 1.90663147 22.40013123 C1.91045671 26.5939593 1.92028705 30.78775295 1.93133545 34.98156738 C1.94154943 39.25788914 1.94612906 43.53421644 1.95117188 47.81054688 C1.96190931 56.20704708 1.97898581 64.60351926 2 73 C0.515 73.495 0.515 73.495 -1 74 C-0.67 49.58 -0.34 25.16 0 0 Z " fill="#FEEEE9" transform="translate(258,206)"/>
<path d="M0 0 C0.66 0.99 1.32 1.98 2 3 C1.0409375 3.433125 1.0409375 3.433125 0.0625 3.875 C-2.15206079 4.82823451 -2.15206079 4.82823451 -3 7 C-6.78434225 8.94623316 -9.79601276 9.09554516 -14 9 C-14.33 9.33 -14.66 9.66 -15 10 C-16.85369611 10.08737645 -18.71067541 10.10698153 -20.56640625 10.09765625 C-21.69111328 10.09443359 -22.81582031 10.09121094 -23.97460938 10.08789062 C-25.15861328 10.07951172 -26.34261719 10.07113281 -27.5625 10.0625 C-28.75037109 10.05798828 -29.93824219 10.05347656 -31.16210938 10.04882812 C-34.10812226 10.03699675 -37.05403681 10.02051287 -40 10 C-39.67 9.34 -39.34 8.68 -39 8 C-38.3201001 7.98018066 -37.6402002 7.96036133 -36.93969727 7.93994141 C-33.81362259 7.84378718 -30.68813527 7.73447934 -27.5625 7.625 C-26.49322266 7.5940625 -25.42394531 7.563125 -24.32226562 7.53125 C-16.48227184 7.24354381 -8.07414663 6.7581404 -1 3 C-0.67 2.01 -0.34 1.02 0 0 Z " fill="#FEE7E8" transform="translate(252,293)"/>
<path d="M0 0 C1.71431213 0.00848969 1.71431213 0.00848969 3.46325684 0.01715088 C7.09052552 0.03942652 10.71678309 0.08960875 14.34375 0.140625 C16.81248567 0.16070129 19.28123692 0.17895007 21.75 0.1953125 C27.78159124 0.23926248 33.81259836 0.30608689 39.84375 0.390625 C39.84375 0.720625 39.84375 1.050625 39.84375 1.390625 C39.23289047 1.39649124 38.62203094 1.40235748 37.99266052 1.40840149 C31.61679537 1.47249077 25.24142772 1.55695046 18.8659668 1.65307617 C16.48875501 1.68626615 14.11146554 1.71431641 11.73413086 1.73706055 C8.31069942 1.77071486 4.88797604 1.82303801 1.46484375 1.87890625 C-0.1214962 1.88849113 -0.1214962 1.88849113 -1.73988342 1.89826965 C-7.72584829 2.01669653 -11.77254021 2.8352604 -17.15625 5.390625 C-18.14625 5.060625 -19.13625 4.730625 -20.15625 4.390625 C-13.30649342 0.21429662 -7.92285267 -0.14922134 0 0 Z " fill="#9E0C0F" transform="translate(194.15625,19.609375)"/>
<path d="M0 0 C1.28583984 0.10054687 1.28583984 0.10054687 2.59765625 0.203125 C5.26002646 0.82538181 6.22823557 1.66525781 7.9375 3.75 C4.54162389 4.8819587 2.39832918 4.45117695 -1.0625 3.75 C-2.89997541 3.60917098 -4.74057451 3.50560602 -6.58203125 3.43359375 C-7.60361328 3.39169922 -8.62519531 3.34980469 -9.67773438 3.30664062 C-10.73283203 3.26732422 -11.78792969 3.22800781 -12.875 3.1875 C-14.48665039 3.12272461 -14.48665039 3.12272461 -16.13085938 3.05664062 C-18.77462082 2.95089017 -21.4184711 2.84879767 -24.0625 2.75 C-22.0625 0.75 -22.0625 0.75 -19.1640625 0.58984375 C-18.01679688 0.62207031 -16.86953125 0.65429688 -15.6875 0.6875 C-10.30269094 0.82728624 -5.32411165 -0.48182006 0 0 Z " fill="#FBD8D8" transform="translate(238.0625,16.25)"/>
<path d="M0 0 C0 0.66 0 1.32 0 2 C-0.99 2.66 -1.98 3.32 -3 4 C-3.99 5.485 -3.99 5.485 -5 7 C-5.99 7.33 -6.98 7.66 -8 8 C-9.25640258 11.01640055 -9.25640258 11.01640055 -10.1875 14.5625 C-10.53167969 15.76003906 -10.87585938 16.95757812 -11.23046875 18.19140625 C-11.48441406 19.11824219 -11.73835938 20.04507813 -12 21 C-12.33 21 -12.66 21 -13 21 C-13.62825336 14.08921309 -12.20931076 9.56503682 -8 4 C-5.61513508 1.82504984 -3.35299118 0 0 0 Z " fill="#A52A2F" transform="translate(84,117)"/>
<path d="M0 0 C0.66 0 1.32 0 2 0 C2.75 1.5625 2.75 1.5625 3 4 C0.82046769 8.77820545 -0.93849284 11.99893903 -6 14 C-9.8125 14.1875 -9.8125 14.1875 -13 14 C-12.01 13.67 -11.02 13.34 -10 13 C-10 12.34 -10 11.68 -10 11 C-8.02 11 -6.04 11 -4 11 C-4 10.34 -4 9.68 -4 9 C-3.01 8.34 -2.02 7.68 -1 7 C-0.26393501 3.43230448 -0.26393501 3.43230448 0 0 Z " fill="#9C1717" transform="translate(252,285)"/>
<path d="M0 0 C0.66 0 1.32 0 2 0 C1.7444669 5.86448454 1.34242429 9.65757571 -3 14 C-4.26332183 9.78892722 -4.00441956 7.4543291 -2.0625 3.625 C-1.39025121 2.40811576 -0.70765749 1.1966397 0 0 Z " fill="#AC161D" transform="translate(171,26)"/>
<path d="M0 0 C0.99 0 1.98 0 3 0 C3.33 1.98 3.66 3.96 4 6 C4.556875 6.12375 5.11375 6.2475 5.6875 6.375 C8.22114364 7.05976855 10.57921032 7.99133763 13 9 C13 9.99 13 10.98 13 12 C8.00189109 10.721414 5.31379552 8.95814465 2 5 C0.6875 2.1875 0.6875 2.1875 0 0 Z " fill="#9E1C1F" transform="translate(169,288)"/>
<path d="M0 0 C0.33 0 0.66 0 1 0 C2.72442619 8.09153828 0.88283501 12.81205283 -3 20 C-3.66 20 -4.32 20 -5 20 C-3.33333333 13.33333333 -1.66666667 6.66666667 0 0 Z " fill="#FAE4DC" transform="translate(355,176)"/>
<path d="M0 0 C5.15171623 -0.09038099 9.91913204 0.15318867 15 1 C15 1.66 15 2.32 15 3 C15.66 3 16.32 3 17 3 C17.33 4.98 17.66 6.96 18 9 C17.53851563 8.59007813 17.07703125 8.18015625 16.6015625 7.7578125 C11.30857221 3.38534226 6.78354489 1.80624099 0 1 C0 0.67 0 0.34 0 0 Z " fill="#F7D3D4" transform="translate(332,115)"/>
<path d="M0 0 C2.85475306 -0.08156437 5.70713565 -0.14076372 8.5625 -0.1875 C9.36236328 -0.21263672 10.16222656 -0.23777344 10.98632812 -0.26367188 C16.44794805 -0.33054885 20.12924103 0.5090481 25 3 C21.73160688 4.08946437 20.80359835 3.90201208 17.5625 3.125 C11.74115629 1.8523872 5.93744348 1.38766813 0 1 C0 0.67 0 0.34 0 0 Z " fill="#9F181A" transform="translate(320,116)"/>
<path d="M0 0 C1.65 0 3.3 0 5 0 C5.33 1.98 5.66 3.96 6 6 C5.67 5.34 5.34 4.68 5 4 C4.34 4 3.68 4 3 4 C3.66 5.32 4.32 6.64 5 8 C2 8 2 8 -0.6875 5.5 C-1.450625 4.675 -2.21375 3.85 -3 3 C0.75 1.875 0.75 1.875 3 3 C3 2.34 3 1.68 3 1 C2.01 0.67 1.02 0.34 0 0 Z " fill="#F5E0E2" transform="translate(249,18)"/>
<path d="M0 0 C0.33 0 0.66 0 1 0 C1.268125 1.216875 1.53625 2.43375 1.8125 3.6875 C3.37625791 9.84479678 5.836349 13.23193035 11 17 C10.01 17.33 9.02 17.66 8 18 C8 17.34 8 16.68 8 16 C6.824375 15.9071875 6.824375 15.9071875 5.625 15.8125 C4.75875 15.544375 3.8925 15.27625 3 15 C1.75 12.625 1.75 12.625 1 10 C0.67 9.01 0.34 8.02 0 7 C-0.03954234 4.66700175 -0.04401732 2.33291811 0 0 Z " fill="#F8CECD" transform="translate(167,282)"/>
<path d="M0 0 C0.33 0 0.66 0 1 0 C1.3125 2.6875 1.3125 2.6875 1 6 C-1.5 8.875 -1.5 8.875 -4 11 C-5.32 10.34 -6.64 9.68 -8 9 C-7.01 8.67 -6.02 8.34 -5 8 C-3.29144978 4.99992729 -3.29144978 4.99992729 -2 2 C-1.34 2 -0.68 2 0 2 C0 1.34 0 0.68 0 0 Z " fill="#A61017" transform="translate(348,191)"/>
<path d="M0 0 C10.395 0.99 10.395 0.99 21 2 C21 2.33 21 2.66 21 3 C18.25048307 3.22212255 15.50134388 3.42815588 12.75 3.625 C11.97269531 3.68945312 11.19539062 3.75390625 10.39453125 3.8203125 C3.27568856 4.30707097 3.27568856 4.30707097 0 2 C0 1.34 0 0.68 0 0 Z " fill="#FED6D4" transform="translate(178,299)"/>
<path d="M0 0 C0.66 0.99 1.32 1.98 2 3 C1.360625 3.28875 0.72125 3.5775 0.0625 3.875 C-2.15206079 4.82823451 -2.15206079 4.82823451 -3 7 C-7.23405029 9.36608693 -10.33533582 8.91464004 -15 8 C-15 7.67 -15 7.34 -15 7 C-14.11248047 6.81824219 -14.11248047 6.81824219 -13.20703125 6.6328125 C-6.91381706 5.38366313 -6.91381706 5.38366313 -1 3 C-0.67 2.01 -0.34 1.02 0 0 Z " fill="#F3CAC4" transform="translate(252,293)"/>
<path d="M0 0 C0.66 0.33 1.32 0.66 2 1 C3.29920852 6.41336882 2.77234615 9.89147286 1 15 C0.67 15 0.34 15 0 15 C-0.19517554 13.06325815 -0.38087873 11.12555991 -0.5625 9.1875 C-0.66691406 8.10855469 -0.77132813 7.02960937 -0.87890625 5.91796875 C-1 3 -1 3 0 0 Z " fill="#FAEEE6" transform="translate(258,33)"/>
<path d="M0 0 C-2.57146057 2.57146057 -4.6050417 2.80117997 -8.125 3.625 C-9.22070312 3.88539062 -10.31640625 4.14578125 -11.4453125 4.4140625 C-12.28835937 4.60742188 -13.13140625 4.80078125 -14 5 C-14 4.34 -14 3.68 -14 3 C-13.34 3 -12.68 3 -12 3 C-12 2.34 -12 1.68 -12 1 C-10.37681021 0.63762737 -8.7513642 0.28534843 -7.125 -0.0625 C-6.22007812 -0.25972656 -5.31515625 -0.45695312 -4.3828125 -0.66015625 C-2 -1 -2 -1 0 0 Z " fill="#FBDDD8" transform="translate(189,18)"/>
<path d="M0 0 C1.58420129 0.62279669 3.16732531 1.24833401 4.75 1.875 C6.07257813 2.39707031 6.07257813 2.39707031 7.421875 2.9296875 C9.6740248 3.8646709 11.83649459 4.87780794 14 6 C4.81380417 6.31139647 4.81380417 6.31139647 1 4 C0.37109375 1.921875 0.37109375 1.921875 0 0 Z " fill="#F9D3D0" transform="translate(76,199)"/>
<path d="M0 0 C1.875 0.25 1.875 0.25 4 1 C5.63074256 3.25197782 6.06704344 4.41336989 5.75 7.1875 C5 9 5 9 3 10 C2.87625 8.865625 2.7525 7.73125 2.625 6.5625 C2.41875 5.386875 2.2125 4.21125 2 3 C1.34 2.67 0.68 2.34 0 2 C0 1.34 0 0.68 0 0 Z " fill="#B30508" transform="translate(342,119)"/>
<path d="M0 0 C0 0.66 0 1.32 0 2 C-0.99 2.66 -1.98 3.32 -3 4 C-3.99 5.485 -3.99 5.485 -5 7 C-6.32 6.34 -7.64 5.68 -9 5 C-7.87926138 4.16094435 -6.75325453 3.32892169 -5.625 2.5 C-4.99851562 2.0359375 -4.37203125 1.571875 -3.7265625 1.09375 C-2 0 -2 0 0 0 Z " fill="#A71C24" transform="translate(84,117)"/>
<path d="M0 0 C-3.95523655 2.75668002 -7.22423661 3.5317879 -12 4 C-8.66437635 0.13769893 -4.98576775 -1.84658065 0 0 Z " fill="#9D191D" transform="translate(186,21)"/>
<path d="M0 0 C3.53586014 3.17320782 5.58578031 5.16743695 6 10 C4.68 9.67 3.36 9.34 2 9 C1.34 6.03 0.68 3.06 0 0 Z " fill="#A62628" transform="translate(346,120)"/>
<path d="M0 0 C3.36720387 1.39332574 4.9859524 2.9789286 7 6 C4.6875 6.25 4.6875 6.25 2 6 C0.1875 4 0.1875 4 -1 2 C-0.67 1.34 -0.34 0.68 0 0 Z " fill="#EDF9EF" transform="translate(345,112)"/>
<path d="M0 0 C0.99 0.66 1.98 1.32 3 2 C2.38125 2.20625 1.7625 2.4125 1.125 2.625 C-1.84653645 4.54775888 -2.13024659 6.66594527 -3 10 C-3.5534764 7.92446352 -4 6.15634036 -4 4 C-2.70766393 2.62689293 -1.37562854 1.28965176 0 0 Z " fill="#F8CED1" transform="translate(172,22)"/>
<path d="M0 0 C1.65 0.33 3.3 0.66 5 1 C4.67 1.99 4.34 2.98 4 4 C2.35 4 0.7 4 -1 4 C-0.67 2.68 -0.34 1.36 0 0 Z " fill="#EDFAF3" transform="translate(251,298)"/>
<path d="M0 0 C1.98 0 3.96 0 6 0 C6 0.66 6 1.32 6 2 C3.04335481 3.4783226 0.25770263 3.06032783 -3 3 C-2.01 2.67 -1.02 2.34 0 2 C0 1.34 0 0.68 0 0 Z " fill="#A60F15" transform="translate(242,296)"/>
<path d="M0 0 C0.33 1.32 0.66 2.64 1 4 C0.360625 4.28875 -0.27875 4.5775 -0.9375 4.875 C-3.15206079 5.82823451 -3.15206079 5.82823451 -4 8 C-4.99 7.67 -5.98 7.34 -7 7 C-6.21625 6.401875 -5.4325 5.80375 -4.625 5.1875 C-1.85425677 3.08914751 -1.85425677 3.08914751 0 0 Z " fill="#F7CECF" transform="translate(349,196)"/>
<path d="M0 0 C1.32 0.33 2.64 0.66 4 1 C4.33 2.32 4.66 3.64 5 5 C2.525 4.01 2.525 4.01 0 3 C0 2.01 0 1.02 0 0 Z " fill="#EBFCF2" transform="translate(169,297)"/>
<path d="M0 0 C0.99 0 1.98 0 3 0 C3.66 2.64 4.32 5.28 5 8 C2.20127563 5.47211993 0.54226981 3.79588866 0 0 Z " fill="#A8212A" transform="translate(169,288)"/>
<path d="M0 0 C-2.68841859 2.25245881 -4.64641875 3.88213958 -8 5 C-8.33 4.34 -8.66 3.68 -9 3 C-6.38997624 -0.48003168 -4.1689578 -0.27793052 0 0 Z " fill="#F9D8D5" transform="translate(84,116)"/>
<path d="M0 0 C0.91007812 0.10183594 1.82015625 0.20367187 2.7578125 0.30859375 C3.45648438 0.39238281 4.15515625 0.47617188 4.875 0.5625 C4.875 0.8925 4.875 1.2225 4.875 1.5625 C3.25175914 1.78412329 1.626279 1.98939803 0 2.1875 C-1.35738281 2.36152344 -1.35738281 2.36152344 -2.7421875 2.5390625 C-3.52851562 2.54679687 -4.31484375 2.55453125 -5.125 2.5625 C-5.785 1.9025 -6.445 1.2425 -7.125 0.5625 C-4.50184968 -0.74907516 -2.89466564 -0.33399988 0 0 Z " fill="#FCE7E2" transform="translate(91.125,113.4375)"/>
<path d="M0 0 C3.37503669 1.1858237 5.64722731 2.27573689 8 5 C7.01 5.33 6.02 5.66 5 6 C5 5.34 5 4.68 5 4 C3.35 3.67 1.7 3.34 0 3 C0 2.01 0 1.02 0 0 Z " fill="#F9DED7" transform="translate(170,294)"/>
</svg>
